<svg xmlns="http://www.w3.org/2000/svg">
    <title>idlehands</title>
    <symbol id="idle-hands-logo" viewBox="0 0 417.09 59.73">
        <title>Idle Hands</title>
        <g id="Layer_2" data-name="Layer 2">
            <g id="Layer_1-2" data-name="Layer 1">
                <g>
                    <path d="M45.79,54.11c0,2.16-.64,5.4-16.41,5.4-3,0-12.1-.07-12.1-4.68,0-2.3,2.45-2.66,3.6-4,.86-1,1.58-3.67,1.58-13.75V29.92c0-6.7.8-15.41-7-15.63-5.33,0-8.93,3.46-8.93,8.5,0,2.59,1.8,2.66,1.8,2.66a3.24,3.24,0,0,1,2.31-1c3.52,0,5.18,2.23,5.18,5.54a5.55,5.55,0,0,1-5.9,5.76C6.48,35.75,0,32.15,0,23.37,0,18.29,4.61,8,17.79,7.82A15.6,15.6,0,0,1,17.18,4c0-3.18,3-6,2.87-2-.12,2.9,2.34,4.74,5.05,5.65,3.25-.1,6.53-.21,7.52-.17,1.31,0,3,0,4.79.17,2.72-.9,5.2-2.74,5.08-5.65C42.33-2,45.4.78,45.36,4a17.38,17.38,0,0,1-1.17,5.57,3.51,3.51,0,0,1,1.6,3c0,2.6-2.73,2.45-4.39,4.32C40,18.4,40,24.88,40,29.92v7.13c0,12.09.79,12.53,2.09,13.25l.22.14C44.07,51.52,45.79,51.88,45.79,54.11Z"/>
                    <path d="M91.44,46.56c0,5,3.82,3.38,3.82,7.12,0,5.48-15.77,5.84-16.56,5.84-3.67,0-1.08-4-3.46-4-.65,0-1.73,1-3.38,2.09a12.91,12.91,0,0,1-7.06,2.08c-9.43,0-16.78-10-16.78-18.86,0-9.58,7.78-18.94,17.72-18.94,5,0,7.77,2.16,8.57,2.16,1.08,0,1.15-2.38,1.15-3.17,0-4.46-5.26-2.09-5.26-6,0-5.33,18.36-6.7,18.58-6.7,2.16,0,2.66,1.51,2.66,3.89ZM75.53,38.71c0-2.81,0-8.93-4.18-8.93-4.82,0-5.68,8.28-5.68,11.66s.86,9.29,5.32,9.29,4.54-7.49,4.54-11.16v-.86Z"/>
                    <path d="M118.51,47.13a12.83,12.83,0,0,0,.29,3.53c.79,2.59,4,1.37,4,4.39,0,4.4-7.27,4.47-10.94,4.47H110c-3.89,0-12.39-.07-12.39-4.76,0-2.52,3.1-1.58,4-4.24.94-3,.94-12,.94-15.48V31.87a48.75,48.75,0,0,0-.51-8.28c-1.08-5.33-5.32-3.46-5.32-7.56,0-6.27,18.72-7.78,19.72-7.78,2.45,0,3,1.58,3,3.74,0,1.66-.94,9.58-.94,19.88Z"/>
                    <path d="M139.1,42.16c-.64,0-1.29.08-1.29,1,0,3.6,4.68,6.63,8.06,6.63,5.4,0,8.07-3.24,9.58-3.24s2.81,2.23,2.81,3.6c0,5.54-10.15,9.57-16.64,9.57-13,0-19.65-9.36-19.65-18.65C122,30,131.4,21.93,142.2,21.93c12.24,0,17.64,9.43,17.64,14.83,0,4.76-2.16,5.4-4.46,5.4Zm4.18-6.91c1.44,0,2.74-.21,2.74-2.16,0-2.59-1.59-4.61-4.25-4.61-2.38,0-4.32,2.45-4.32,4.75,0,1.81,1.15,2.09,2.52,2.09Z"/>
                    <path d="M177.48,22.79c0,2.6,1.8,2.67,1.8,2.67a3.22,3.22,0,0,1,2.3-1c3.53,0,5.19,2.23,5.19,5.54a5.56,5.56,0,0,1-5.91,5.76c-3.46,0-9.94-3.6-9.94-12.38,0-6.48,4.61-15.91,18-15.91h12.16c3,0,11.38.36,11.38,4.68,0,2.23-1.22,3-2.88,4s-2.23,1.8-2.23,8.28c0,3.24,1.22,3.53,3.46,3.53h5.54c4.46,0,4.61-.65,4.61-2.59,0-8.21-1.15-8.72-2.16-9.22l-.22-.14c-1.29-.72-2.45-1.37-2.45-3.17v-.15c0-1.44.22-5.25,14.05-5.25,3.38,0,13,.07,13,5.11A3.58,3.58,0,0,1,240.91,16l-.36.15c-1.87.86-2.59,1.15-2.59,12V46.84c0,2.16.29,3.24,2.23,4.32l.29.15c1.3.72,2.16,1.22,2.16,2.88s-.14,5.33-14.33,5.33c-3.16,0-12.38-.07-12.38-4.9v-.43c0-4.83,5,.65,5-13.61,0-3.6-.72-3.74-3.75-3.74-9.14,0-9.86.07-9.86,4.17V43.6c0,9.87,4.46,5.91,4.46,10.59,0,5-10.51,5.33-14,5.33-3.31,0-13.32-.29-13.32-5.19a3.4,3.4,0,0,1,2.31-3l.29-.15c2.37-1.08,3.24-1.51,3.24-15.91,0-21.6-1.3-20.88-5.19-20.88A8.19,8.19,0,0,0,177.48,22.79Z"/>
                    <path d="M281.09,41.52c0,12.67,4.32,5.76,4.32,9.64,0,4.11-5.62,8.57-10.87,8.57-5.69,0-5.84-3.67-7.64-3.67s-3.89,3.67-10.44,3.67c-6,0-11.95-3.16-11.95-10.29,0-5.12,4.9-11.45,17.57-11.45h.36c2,0,2.88,0,2.88-2.45s-.07-7.35-3.39-7.35c-4.32,0-4.75,7.78-11.16,7.78a3.88,3.88,0,0,1-4-4c0-6.12,12.17-10.08,19-10.08,4.11,0,15.34,1.58,15.34,12.39Zm-21.6,6.33c0,1.87,1,3.89,3.09,3.89,2.74,0,2.95-3,2.95-5.11v-.15c0-1.51,0-3.24-1.94-3.24C261.14,43.24,259.49,45.55,259.49,47.85Z"/>
                    <path d="M307.87,46.7c0,7,2.45,5.76,2.45,8.5,0,4.17-8.43,4.32-11.88,4.32h-.72c-3,0-10.16-.07-10.16-4.32,0-3.46,3.39-.36,3.82-7.42V36.69c0-5-4.25-3.38-4.25-7.13s16.56-7.41,18-7.41a2.67,2.67,0,0,1,2.6,2.8l-.08,1.3c0,.86.36,1.87,1.44,1.87,2.24,0,2.67-6,11-6,11.95,0,13,7.77,13,16.27V44c0,1.22,0,2.52.07,3.67.37,5.69,3.32,4.39,3.32,7.49v.14c0,1.37-.29,4.18-13.25,4.18h-.29c-2.74,0-9.22,0-9.22-3.89,0-2.59,2.38-1.37,2.74-6.05.14-2.09.58-5.18.58-8.14,0-4.39-.94-8.49-5-8.49s-4.18,3.53-4.18,6.55v7.2Z"/>
                    <path d="M379.51,46.56c0,5,3.82,3.38,3.82,7.12,0,5.48-15.77,5.84-16.56,5.84-3.68,0-1.08-4-3.46-4-.65,0-1.73,1-3.38,2.09a12.91,12.91,0,0,1-7.06,2.08c-9.43,0-16.78-10-16.78-18.86,0-9.58,7.78-18.94,17.72-18.94,5,0,7.77,2.16,8.56,2.16,1.08,0,1.16-2.38,1.16-3.17,0-4.46-5.26-2.09-5.26-6,0-5.33,18.36-6.7,18.58-6.7,2.16,0,2.66,1.51,2.66,3.89ZM363.6,38.71c0-2.81,0-8.93-4.18-8.93-4.82,0-5.69,8.28-5.69,11.66s.87,9.29,5.33,9.29,4.54-7.49,4.54-11.16v-.86Z"/>
                    <path d="M403.49,22.36c1.29.22,2.44.51,2.95.51a4.55,4.55,0,0,0,1.94-.51,6.52,6.52,0,0,1,1.95-.43c3.31,0,6.62,6.62,6.62,9.58a3.46,3.46,0,0,1-3.53,3.38c-4.1,0-6.41-5.69-9.57-5.69a2.61,2.61,0,0,0-2.6,2.45c0,4.61,15.84,5.47,15.84,16.63,0,6.77-6.55,11.45-14,11.45-2.88,0-8.21-.93-9.14-.93s-1.73.29-2.81.29a3.47,3.47,0,0,1-3.17-1.37,16.09,16.09,0,0,1-3.6-8.86c0-1.87.65-3.38,2.74-3.38,3.17,0,6.05,7.12,10.08,7.12,1.44,0,2.81-.72,2.81-2.3,0-4.25-14.12-4.75-14.12-16.63,0-7.2,5.91-11.74,13.33-11.74A21.31,21.31,0,0,1,403.49,22.36Z"/>
                </g>
            </g>
        </g>
    </symbol>
</svg>
