<svg xmlns="http://www.w3.org/2000/svg">
    <symbol id="pentagram" viewBox="0 0 33.3 33.3">
        <title>Pentagram</title>
        <g id="Layer_2" data-name="Layer 2">
            <g id="Layer_1-2" data-name="Layer 1">
                <g>
                    <polygon points="7.22 19.45 12.53 19.45 11.52 16.32 7.22 19.45" />
                    <polygon points="15.12 11.48 10.82 8.36 12.46 13.41 15.12 11.48" />
                    <polygon points="16.65 26.3 18.29 21.25 15.01 21.25 16.65 26.3" />
                    <polygon points="22.48 8.36 18.18 11.48 20.84 13.41 22.48 8.36" />
                    <polygon points="13.05 15.21 14.42 19.45 18.88 19.45 20.25 15.21 16.65 12.59 13.05 15.21" />
                    <path d="M16.65,0A16.65,16.65,0,1,0,33.3,16.65,16.66,16.66,0,0,0,16.65,0Zm12.2,21.24H20.19l-2.68,8.25a.9.9,0,0,1-.86.62.89.89,0,0,1-.85-.62l-2.68-8.25H4.45a.9.9,0,0,1-.86-.62.89.89,0,0,1,.33-1l7-5.1L8.25,6.28a.92.92,0,0,1,.33-1,.9.9,0,0,1,1.06,0l7,5.1,7-5.1a.9.9,0,0,1,1.39,1l-2.68,8.24,7,5.1a.89.89,0,0,1,.33,1A.9.9,0,0,1,28.85,21.24Z" />
                    <polygon points="20.77 19.45 26.08 19.45 21.79 16.32 20.77 19.45" />
                </g>
            </g>
        </g>
    </symbol>
</svg>